<svg width="221" height="38" viewBox="0 0 221 38" fill="none" xmlns="http://www.w3.org/2000/svg">
<path fill-rule="evenodd" clip-rule="evenodd" d="M27.3646 19.3151H32.1761C32.0648 18.3144 31.1871 17.336 29.7703 17.336C28.3755 17.336 27.5215 18.2914 27.3646 19.3151V19.3151ZM35.5949 20.9085C35.5949 21.2944 35.573 22.0458 35.573 22.0458H27.2299C27.2983 23.2744 28.3101 24.1162 29.8838 24.1162C31.5023 24.1162 32.5824 23.4793 33.3469 22.8876H33.5267L34.7181 26.0278C33.9536 26.6417 32.244 27.4152 29.9504 27.4152C26.2638 27.4152 23.588 25.0263 23.588 20.8402C23.588 16.7225 26.241 14.1287 29.7041 14.1287C33.2566 14.1287 35.5949 16.8582 35.5949 20.9085V20.9085Z" fill="#0089FF"/>
<path fill-rule="evenodd" clip-rule="evenodd" d="M47.4006 16.1087L46.0733 19.0884H45.8944C44.8371 17.9059 43.3308 17.2912 42.184 17.2912C41.217 17.2912 40.8575 17.7241 40.8575 18.133C40.8575 18.6795 41.0601 18.7699 43.7578 19.4299C46.2539 20.0438 47.896 21.0222 47.896 23.4572C47.896 26.0049 46.1197 27.4153 43.038 27.4153C39.9808 27.4153 37.7986 26.255 36.9447 25.3449L38.3387 22.1603H38.5184C39.6213 23.0705 40.9689 23.9797 42.9039 23.9797C44.0497 23.9797 44.2523 23.6621 44.2523 23.2523C44.2523 22.8203 44.0059 22.5923 41.3073 21.9102C38.3843 21.1819 37.2594 19.9985 37.2594 18.0647C37.2594 15.6758 39.1716 14.1297 42.0034 14.1297C44.7476 14.1297 46.8386 15.4257 47.4006 16.1087" fill="#0089FF"/>
<path fill-rule="evenodd" clip-rule="evenodd" d="M59.4766 16.1087L58.1493 19.0884H57.9695C56.9131 17.9059 55.4068 17.2912 54.2601 17.2912C53.293 17.2912 52.9336 17.7241 52.9336 18.133C52.9336 18.6795 53.1352 18.7699 55.8338 19.4299C58.3299 20.0438 59.972 21.0222 59.972 23.4572C59.972 26.0049 58.1949 27.4153 55.1149 27.4153C52.0559 27.4153 49.8746 26.255 49.0216 25.3449L50.4156 22.1603H50.5944C51.6965 23.0705 53.0458 23.9797 54.9799 23.9797C56.1266 23.9797 56.3292 23.6621 56.3292 23.2523C56.3292 22.8203 56.0819 22.5923 53.3833 21.9102C50.4603 21.1819 49.3346 19.9985 49.3346 18.0647C49.3346 15.6758 51.2476 14.1297 54.0803 14.1297C56.8245 14.1297 58.9147 15.4257 59.4766 16.1087" fill="#0089FF"/>
<path fill-rule="evenodd" clip-rule="evenodd" d="M68.0001 21.5003C67.7976 21.8409 67.3925 22.0689 66.0669 22.3874C64.7851 22.7058 64.6054 23.0704 64.6054 23.5707C64.6054 24.071 65.0087 24.3212 65.6837 24.3212C66.7192 24.3212 68.0448 23.639 68.0448 22.6153V21.5003H68.0001ZM71.597 19.021V27.143H68.652L68.3364 25.4593H68.2698C67.6631 26.5513 66.426 27.4153 64.6497 27.4153C62.2212 27.4153 60.9841 25.8461 60.9841 23.7517C60.9841 21.6822 61.9283 20.3631 64.8751 19.7714C67.82 19.1798 68.0225 18.9748 68.0225 18.3601C68.0225 17.7463 67.4606 17.4047 66.2682 17.4047C64.9864 17.4047 63.5705 18.3379 62.7832 19.5213H62.6034L61.1191 16.4272C62.4903 15.062 64.2675 14.1297 66.5154 14.1297C69.349 14.1297 71.597 15.9943 71.597 19.021V19.021Z" fill="#0089FF"/>
<path fill-rule="evenodd" clip-rule="evenodd" d="M77.0181 20.2034C77.0181 21.7513 77.9843 22.7289 79.4467 22.7289C80.8407 22.7289 81.8297 21.8409 81.8297 20.1803C81.8297 18.6111 80.9976 17.4739 79.4467 17.4739C77.8493 17.4739 77.0181 18.6572 77.0181 20.2034M82.0995 16.0857H82.1661L82.3686 14.402H85.2926V25.5267C85.2926 29.4636 83.1112 31.6245 79.1308 31.6245C76.8592 31.6245 75.1285 30.8509 74.0493 30.0774L75.1741 26.8236H75.3539C76.4103 27.6885 77.5799 28.2119 78.9958 28.2119C80.8852 28.2119 81.5822 27.4384 81.5822 25.7325V24.5723H81.4928C80.9518 25.391 79.8734 26.0741 78.2532 26.0741C75.2644 26.0741 73.1717 23.7074 73.1717 20.34C73.1717 16.6543 75.6458 14.1297 78.5689 14.1297C80.3679 14.1297 81.5822 15.1755 82.0995 16.0857" fill="#0089FF"/>
<path fill-rule="evenodd" clip-rule="evenodd" d="M90.87 19.3151H95.6816C95.5693 18.3144 94.6917 17.336 93.2758 17.336C91.8818 17.336 91.0269 18.2914 90.87 19.3151M99.1003 20.9085C99.1003 21.2944 99.0775 22.0458 99.0775 22.0458H90.7354C90.8029 23.2744 91.8138 24.1162 93.3884 24.1162C95.0069 24.1162 96.0861 23.4793 96.8515 22.8876H97.0304L98.2227 26.0278C97.4591 26.6417 95.7494 27.4152 93.4559 27.4152C89.7675 27.4152 87.0926 25.0263 87.0926 20.8402C87.0926 16.7225 89.7456 14.1287 93.2087 14.1287C96.7612 14.1287 99.1003 16.8582 99.1003 20.9085" fill="#0089FF"/>
<path fill-rule="evenodd" clip-rule="evenodd" d="M105.105 23.4563H108.861C109.805 23.4563 110.322 22.9108 110.322 22.0689C110.322 21.2271 109.917 20.5902 108.725 20.5902H105.105V23.4563ZM105.105 17.6999H108.861C109.805 17.6999 110.322 17.1543 110.322 16.3355C110.322 15.5381 109.917 14.9242 108.725 14.9242H105.105V17.6999ZM109.557 11.2165C112.66 11.2165 114.324 12.7414 114.324 15.3112C114.324 17.1315 113.492 18.2687 111.85 18.9748V19.02C113.335 19.5886 114.324 20.8403 114.324 22.8877C114.324 24.935 113.177 27.1421 108.995 27.1421H101.125V11.2165H109.557Z" fill="#0089FF"/>
<mask id="mask0_2_63" style="mask-type:luminance" maskUnits="userSpaceOnUse" x="0" y="1" width="144" height="37">
<path fill-rule="evenodd" clip-rule="evenodd" d="M0 37.4045H144V1H0V37.4045Z" fill="white"/>
</mask>
<g mask="url(#mask0_2_63)">
<path fill-rule="evenodd" clip-rule="evenodd" d="M116.236 27.1422H119.946V14.4012H116.236V27.1422ZM120.463 10.5111C120.463 11.8763 119.632 12.8778 118.125 12.8778C116.619 12.8778 115.786 11.8763 115.786 10.5111C115.786 9.12372 116.619 8.19052 118.125 8.19052C119.632 8.19052 120.463 9.12372 120.463 10.5111V10.5111Z" fill="#0089FF"/>
<path fill-rule="evenodd" clip-rule="evenodd" d="M130.897 15.1755L130.357 18.6111H130.178C129.817 18.2244 129.256 17.8376 128.469 17.8376C126.985 17.8376 126.131 19.2028 126.131 21.5003V27.143H122.42V14.402H125.478L125.681 16.0857H125.748C126.423 14.7205 127.457 14.1297 128.604 14.1297C129.482 14.1297 130.426 14.4703 130.897 15.1755" fill="#0089FF"/>
<path fill-rule="evenodd" clip-rule="evenodd" d="M134.834 20.7941C134.834 22.7279 135.935 23.9334 137.578 23.9334C139.219 23.9334 140.344 22.8423 140.344 20.771C140.344 18.8372 139.241 17.4729 137.622 17.4729C136.004 17.4729 134.834 18.8603 134.834 20.7941V20.7941ZM140.859 27.1424L140.545 25.4587H140.477C139.757 26.6181 138.656 27.4147 136.655 27.4147C133.26 27.4147 131.123 24.6621 131.123 20.9542C131.123 17.1318 133.372 14.1291 136.746 14.1291C138.229 14.1291 139.465 14.7199 140.163 15.7205H140.208V10.2606H143.806V27.1424H140.859Z" fill="#0089FF"/>
<path fill-rule="evenodd" clip-rule="evenodd" d="M16.4976 27.0551V15.1248H16.4513L12.7014 27.0551H8.81426L5.06352 15.1248H5.01805V27.0551H1.06226V11.5314H7.62494L10.7347 22.1318H10.7801L13.8898 11.5314H20.4525V27.0551H16.4976Z" fill="#0089FF"/>
</g>
<path d="M156.338 28H149.941V9.95646H156.391C158.205 9.95646 159.768 10.3177 161.078 11.0401C162.387 11.7567 163.395 12.7875 164.1 14.1326C164.81 15.4776 165.166 17.0869 165.166 18.9606C165.166 20.8401 164.81 22.4554 164.1 23.8063C163.395 25.1572 162.382 26.1939 161.06 26.9163C159.744 27.6388 158.17 28 156.338 28ZM153.756 24.7314H156.179C157.307 24.7314 158.255 24.5317 159.025 24.1323C159.8 23.727 160.382 23.1015 160.769 22.2557C161.163 21.404 161.36 20.3057 161.36 18.9606C161.36 17.6273 161.163 16.5378 160.769 15.692C160.382 14.8462 159.803 14.2236 159.034 13.8242C158.264 13.4248 157.316 13.2251 156.188 13.2251H153.756V24.7314ZM184.2 18.9782C184.2 20.9459 183.827 22.6198 183.081 24.0001C182.341 25.3804 181.331 26.4347 180.051 27.163C178.776 27.8855 177.343 28.2467 175.751 28.2467C174.148 28.2467 172.709 27.8825 171.434 27.1542C170.16 26.4259 169.152 25.3716 168.412 23.9913C167.672 22.611 167.302 20.94 167.302 18.9782C167.302 17.0106 167.672 15.3366 168.412 13.9563C169.152 12.5761 170.16 11.5247 171.434 10.8023C172.709 10.0739 174.148 9.70977 175.751 9.70977C177.343 9.70977 178.776 10.0739 180.051 10.8023C181.331 11.5247 182.341 12.5761 183.081 13.9563C183.827 15.3366 184.2 17.0106 184.2 18.9782ZM180.333 18.9782C180.333 17.7037 180.142 16.6288 179.76 15.7537C179.384 14.8785 178.853 14.2148 178.165 13.7625C177.478 13.3103 176.673 13.0841 175.751 13.0841C174.829 13.0841 174.024 13.3103 173.337 13.7625C172.65 14.2148 172.116 14.8785 171.734 15.7537C171.358 16.6288 171.17 17.7037 171.17 18.9782C171.17 20.2528 171.358 21.3276 171.734 22.2028C172.116 23.078 172.65 23.7417 173.337 24.1939C174.024 24.6462 174.829 24.8723 175.751 24.8723C176.673 24.8723 177.478 24.6462 178.165 24.1939C178.853 23.7417 179.384 23.078 179.76 22.2028C180.142 21.3276 180.333 20.2528 180.333 18.9782ZM202.574 16.2735H198.715C198.645 15.7742 198.501 15.3308 198.284 14.9431C198.066 14.5496 197.787 14.2148 197.447 13.9387C197.106 13.6627 196.713 13.4512 196.266 13.3044C195.826 13.1575 195.347 13.0841 194.83 13.0841C193.896 13.0841 193.083 13.3161 192.39 13.7801C191.697 14.2383 191.159 14.9079 190.777 15.7889C190.396 16.6641 190.205 17.7272 190.205 18.9782C190.205 20.2645 190.396 21.3453 190.777 22.2204C191.165 23.0956 191.705 23.7564 192.398 24.2028C193.092 24.6491 193.893 24.8723 194.804 24.8723C195.315 24.8723 195.788 24.8048 196.222 24.6697C196.663 24.5346 197.053 24.3378 197.394 24.0794C197.735 23.8151 198.017 23.495 198.24 23.1191C198.469 22.7432 198.627 22.3144 198.715 21.8328L202.574 21.8504C202.475 22.6786 202.225 23.4774 201.826 24.2468C201.432 25.0104 200.9 25.6946 200.231 26.2996C199.567 26.8987 198.774 27.3745 197.852 27.7269C196.936 28.0734 195.899 28.2467 194.742 28.2467C193.133 28.2467 191.694 27.8825 190.425 27.1542C189.162 26.4259 188.164 25.3716 187.429 23.9913C186.701 22.611 186.337 20.94 186.337 18.9782C186.337 17.0106 186.707 15.3366 187.447 13.9563C188.187 12.5761 189.192 11.5247 190.46 10.8023C191.729 10.0739 193.156 9.70977 194.742 9.70977C195.788 9.70977 196.757 9.85661 197.649 10.1503C198.548 10.444 199.344 10.8727 200.037 11.4366C200.73 11.9946 201.294 12.6788 201.729 13.4894C202.169 14.2999 202.451 15.228 202.574 16.2735ZM214.726 15.1457C214.656 14.435 214.353 13.8829 213.819 13.4894C213.284 13.0959 212.559 12.8991 211.643 12.8991C211.02 12.8991 210.494 12.9872 210.065 13.1634C209.637 13.3337 209.308 13.5716 209.079 13.8771C208.856 14.1825 208.744 14.529 208.744 14.9167C208.732 15.2397 208.8 15.5216 208.947 15.7625C209.099 16.0033 209.308 16.2118 209.572 16.388C209.836 16.5583 210.142 16.7081 210.488 16.8373C210.835 16.9607 211.205 17.0664 211.598 17.1545L213.22 17.5421C214.007 17.7184 214.729 17.9533 215.387 18.247C216.045 18.5407 216.614 18.9019 217.096 19.3306C217.578 19.7594 217.951 20.2645 218.215 20.846C218.485 21.4275 218.623 22.0941 218.629 22.846C218.623 23.9502 218.341 24.9076 217.783 25.7181C217.231 26.5228 216.432 27.1483 215.387 27.5947C214.347 28.0352 213.093 28.2555 211.625 28.2555C210.168 28.2555 208.9 28.0323 207.819 27.5859C206.744 27.1395 205.904 26.4788 205.299 25.6036C204.7 24.7226 204.386 23.633 204.356 22.335H208.048C208.089 22.9399 208.262 23.4451 208.568 23.8503C208.879 24.2497 209.293 24.5522 209.81 24.7578C210.333 24.9575 210.923 25.0574 211.581 25.0574C212.227 25.0574 212.788 24.9634 213.264 24.7754C213.745 24.5875 214.118 24.3261 214.383 23.9913C214.647 23.6565 214.779 23.2718 214.779 22.8372C214.779 22.4319 214.659 22.0912 214.418 21.8152C214.183 21.5391 213.836 21.3042 213.378 21.1103C212.926 20.9165 212.371 20.7403 211.713 20.5817L209.748 20.0883C208.227 19.7183 207.026 19.1398 206.145 18.3527C205.264 17.5656 204.826 16.5055 204.832 15.1722C204.826 14.0797 205.117 13.1252 205.704 12.3088C206.298 11.4924 207.111 10.8551 208.145 10.397C209.179 9.93884 210.353 9.70977 211.669 9.70977C213.008 9.70977 214.177 9.93884 215.175 10.397C216.18 10.8551 216.961 11.4924 217.519 12.3088C218.077 13.1252 218.365 14.0709 218.382 15.1457H214.726Z" fill="#43556C"/>
</svg>
